<?xml version="1.0" encoding="UTF-8" standalone="no"?>
<!DOCTYPE svg PUBLIC "-//W3C//DTD SVG 1.1//EN" "http://www.w3.org/Graphics/SVG/1.1/DTD/svg11.dtd">
<svg width="100%" height="100%" viewBox="0 0 32 19" version="1.1" xmlns="http://www.w3.org/2000/svg" xmlns:xlink="http://www.w3.org/1999/xlink" xml:space="preserve" xmlns:serif="http://www.serif.com/" style="fill-rule:evenodd;clip-rule:evenodd;stroke-linejoin:round;stroke-miterlimit:2;">
    <g transform="matrix(1,0,0,1,-8.00009,-15.719084)">
        <g transform="matrix(2.004832,0,0,2.004832,7.999909,-15.222222)">
            <g transform="matrix(0.084567,0,0,0.084567,-413.383615,32.629041)">
                <g transform="matrix(0.659078,0,0,0.659078,6029.352413,-748.130412)">
                    <g transform="matrix(-0.795864,0,0,0.795864,-579.595706,489.56642)">
                        <path d="M1395.885,526.038L1344.605,526.038L1395.885,474.758L1395.885,423.477L1344.604,474.758L1344.604,423.477L1293.323,423.477L1242.042,474.758L1190.762,474.758L1190.762,526.039L1242.043,526.039L1242.043,577.319L1293.323,577.319L1344.604,628.6L1395.885,628.6L1395.885,526.039L1447.166,526.039L1447.166,423.477L1395.885,423.477L1395.885,526.038ZM1344.604,577.319L1293.324,526.039L1344.604,526.039L1344.604,577.319ZM1242.043,526.038L1293.323,474.758L1293.323,526.038L1242.043,526.038ZM1242.043,577.319L1190.762,577.319L1139.482,526.039L1139.482,526.038L1088.201,526.038L1088.201,577.319L1139.481,577.319L1190.762,628.6L1242.043,628.6L1242.043,577.319Z" style="fill:rgb(0,0,236);fill-rule:nonzero;"/>
                    </g>
                </g>
            </g>
        </g>
    </g>
</svg>
