<?xml version="1.0" encoding="UTF-8" standalone="no"?>
<!DOCTYPE svg PUBLIC "-//W3C//DTD SVG 1.1//EN" "http://www.w3.org/Graphics/SVG/1.1/DTD/svg11.dtd">
<svg width="100%" height="100%" viewBox="0 0 473 108" version="1.1" xmlns="http://www.w3.org/2000/svg" xmlns:xlink="http://www.w3.org/1999/xlink" xml:space="preserve" xmlns:serif="http://www.serif.com/" style="fill-rule:evenodd;clip-rule:evenodd;stroke-linejoin:round;stroke-miterlimit:2;">
    <g transform="matrix(1,0,0,1,-4888.261245,203.338409)">
        <g transform="matrix(0.659078,0,0,0.659078,6029.352413,-748.130412)">
            <g transform="matrix(0.769347,0,0,0.257143,-1687.37542,752.696542)">
                <path d="M441.699,345.458L382.525,345.458L382.525,371.125L431.365,371.125L428.441,452.208L396.563,452.208L399,383.375L390.032,382.208L386.522,477L443.551,477C442.479,516.667 441.796,538.25 441.601,541.75C440.432,562.458 439.067,565.375 429.708,567.125L419.667,568L422.592,593.667L432.73,591.625C447.158,587.25 449.498,582.583 451.057,546.125L453.495,452.208L437.897,452.208L441.699,345.458ZM373.167,535.917L436.63,535.917L436.63,511.417L373.167,511.417L373.167,535.917Z" style="fill:white;"/>
                <path d="M550.005,522.5C549.907,533 549.615,542.333 549.03,550.792C548.348,561 547.178,563.625 542.109,564.792C541.426,565.083 540.256,565.083 538.794,565.083C537.332,565.083 536.259,565.083 535.48,564.792C530.508,563.625 529.143,561.875 529.143,548.167L529.143,501.5L547.568,501.5L547.568,411.375L519.492,411.375L519.492,383.667L556.341,383.667L556.341,359.458L519.492,359.458L519.492,332.042L511.108,331.167L511.108,359.458L474.746,359.458L474.746,383.667L511.108,383.667L511.108,411.375L483.52,411.375L483.52,501.5L499.313,501.5C499.313,502.375 499.215,504.417 498.923,507.917C496.778,543.5 491.806,555.458 472.504,574.708L476.793,600.667C497.753,575.292 505.649,557.5 507.794,516.375C508.086,511.125 508.281,506.167 508.476,501.5L520.662,501.5L520.662,555.75C520.662,580.25 523.586,588.125 532.165,589.583C534.602,589.875 536.454,590.167 537.722,590.167C539.087,590.167 540.939,589.875 543.278,589.583C552.929,587.833 555.562,582.875 556.731,562.75C557.219,554.583 557.706,544.083 558.096,531.25L550.005,522.5ZM539.184,477.292L492.001,477.292L492.001,436.167L539.184,436.167L539.184,477.292Z" style="fill:white;"/>
                <path d="M659.481,572.083C649.44,559.542 641.738,547.292 636.377,535.042C643.006,515.208 646.905,493.625 650.122,464.458L650.122,440.542L631.99,440.542L631.99,392.417L646.515,392.417L642.226,419.25L650.22,425.958L655.386,391.25L655.386,367.333L631.99,367.333L631.99,331.75L623.314,330.583L623.314,367.333L601.087,367.333L601.087,439.375C601.087,464.458 600.697,484.583 600.015,499.458C599.332,514.333 598.163,528.042 596.31,540.583C594.556,552.833 591.826,567.125 588.024,583.167L595.823,596.583C597.285,589.875 598.65,582.875 599.917,575.875L603.914,597.458C615.028,582.292 623.704,567.125 629.943,552.25C635.889,567.125 644.273,582.292 654.996,597.167L659.481,572.083ZM597.968,376.667C596.018,371.125 593.386,364.417 590.071,356.833C586.757,349.25 583.93,343.417 581.688,339.333L577.008,359.167C579.445,363.833 582.272,370.25 585.684,378.708C589.096,387.167 591.631,394.167 593.483,400.292L597.968,376.667ZM609.568,440.542L609.568,392.417L623.314,392.417L623.314,440.542L609.568,440.542ZM593.776,440.25C591.729,434.708 588.901,427.708 585.295,419.833C581.785,411.958 578.861,405.542 576.423,401.167L571.939,422.75C574.376,427.708 577.301,434.417 580.81,442.875C584.417,451.333 587.147,458.917 589.194,465.042L593.776,440.25ZM623.899,534.75C618.05,547.292 610.348,559.542 600.795,571.208C603.914,554 606.059,537.667 607.326,522.5C608.593,507.042 609.276,488.083 609.471,465.625L610.543,465.625C613.76,493.625 618.245,516.667 623.899,534.75ZM640.764,465.625C638.521,486.333 635.499,502.958 630.138,519C625.458,504.708 621.851,486.917 619.317,465.625L640.764,465.625ZM584.417,481.958C583.54,492.75 581.688,509.958 578.958,533.583C576.326,557.208 574.279,572.667 572.914,580.542L581.688,589.292C582.955,581.125 584.905,564.792 587.732,540C590.559,515.208 592.216,498.875 592.801,490.417L588.609,486.042L584.417,481.958Z" style="fill:white;"/>
            </g>
            <g transform="matrix(0.830046,0,0,0.257143,-1709.712294,837.433124)">
                <path d="M385.8,565.667L385.8,395.625L386.342,395.625L400.98,522.5L411.642,522.5L426.28,395.625L426.822,395.625L426.822,565.667L436.852,565.667L436.852,363.25L420.859,363.25L406.673,487.792L406.13,487.792L392.216,363.25L375.861,363.25L375.861,565.667L385.8,565.667Z" style="fill:white;"/>
                <path d="M496.035,454.833C496.035,422.458 490.614,405.25 475.705,405.25C471.729,405.25 467.934,406.125 464.32,407.875L464.32,435C467.754,432.667 471.277,431.5 474.892,431.5C483.837,431.5 486.367,440.542 486.367,461.25L486.367,471.167L472.452,471.167C459.531,471.167 452.845,485.458 452.845,521.333C452.845,552.833 458.447,568.583 469.651,568.583C477.241,568.583 483.837,558.958 486.367,543.792L487.542,565.667L496.035,565.667L496.035,454.833ZM486.367,517.542C484.108,533.875 478.596,543.5 471.277,543.5C465.224,543.5 462.603,535.917 462.603,520.458C462.603,500.333 465.585,494.5 473.536,494.5L486.367,494.5L486.367,517.542Z" style="fill:white;"/>
                <path d="M539.768,405.25C532.901,405.25 527.57,412.833 524.769,436.458L524.769,408.167L515.01,408.167L515.01,565.667L524.769,565.667L524.769,467.958C526.576,444.917 531.455,433.542 539.316,433.542L540.4,433.542L540.762,405.25L539.768,405.25Z" style="fill:white;"/>
                <path d="M593.168,408.167L581.512,408.167L566.152,470.292L563.351,470.292L563.351,344L553.592,344L553.592,565.667L563.351,565.667L563.351,494.5L565.79,494.5L581.964,565.667L594.162,565.667L573.832,481.375L593.168,408.167Z" style="fill:white;"/>
                <path d="M625.426,565.667L637.353,423.625L637.895,423.625L649.551,565.667L662.381,565.667L677.019,363.25L666.628,363.25L655.876,526.875L655.334,526.875L643.858,385.417L631.931,385.417L620.366,526.875L619.824,526.875L609.071,363.25L598.409,363.25L612.685,565.667L625.426,565.667Z" style="fill:white;"/>
                <path d="M726.896,454.833C726.896,422.458 721.475,405.25 706.566,405.25C702.59,405.25 698.795,406.125 695.181,407.875L695.181,435C698.614,432.667 702.138,431.5 705.753,431.5C714.698,431.5 717.228,440.542 717.228,461.25L717.228,471.167L703.313,471.167C690.392,471.167 683.706,485.458 683.706,521.333C683.706,552.833 689.308,568.583 700.512,568.583C708.102,568.583 714.698,558.958 717.228,543.792L718.402,565.667L726.896,565.667L726.896,454.833ZM717.228,517.542C714.969,533.875 709.457,543.5 702.138,543.5C696.084,543.5 693.464,535.917 693.464,520.458C693.464,500.333 696.446,494.5 704.397,494.5L717.228,494.5L717.228,517.542Z" style="fill:white;"/>
                <path d="M767.647,565.667L785.718,408.167L775.417,408.167L762.135,533.583L761.593,533.583L748.22,408.167L737.919,408.167L755.991,565.667L767.647,565.667Z" style="fill:white;"/>
                <path d="M836.408,491.875C836.679,485.167 836.86,478.458 836.86,472.333C836.86,452.208 835.414,435.875 832.613,423.625C829.812,411.375 824.571,405.25 816.891,405.25C801.892,405.25 794.031,424.792 794.031,486.917C794.031,549.042 801.982,568.583 817.072,568.583C824.21,568.583 831.167,564.208 834.33,558.667L834.33,531.833C830.716,537.667 824.21,542.333 818.698,542.333C808.217,542.333 804.241,529.208 803.97,498.583L836.408,491.875ZM803.97,475.833C804.241,444.333 807.223,430.042 816.891,430.042C825.565,430.042 827.643,444.625 827.643,470.292L803.97,475.833Z" style="fill:white;"/>
            </g>
            <g transform="matrix(-0.795864,0,0,0.795864,-579.595706,489.56642)">
                <path d="M1395.885,526.038L1344.605,526.038L1395.885,474.758L1395.885,423.477L1344.604,474.758L1344.604,423.477L1293.323,423.477L1242.042,474.758L1190.762,474.758L1190.762,526.039L1242.042,526.039L1242.043,526.039L1242.043,577.319L1293.323,577.319L1293.323,577.319L1344.604,628.6L1344.604,628.6L1395.885,628.6L1395.885,526.039L1447.166,526.039L1447.166,423.477L1395.885,423.477L1395.885,526.038ZM1344.604,577.319L1293.324,526.039L1344.604,526.039L1344.604,526.039L1344.604,577.319ZM1242.043,526.038L1293.323,474.758L1293.323,526.038L1242.043,526.038ZM1242.043,577.319L1190.762,577.319L1139.482,526.039L1139.482,526.038L1088.201,526.038L1088.201,577.319L1139.481,577.319L1139.481,577.319L1190.762,628.6L1190.762,628.6L1190.762,628.6L1242.043,628.6L1242.043,577.319Z" style="fill:white;"/>
            </g>
        </g>
    </g>
</svg>
